<svg xmlns="http://www.w3.org/2000/svg" xml:space="preserve" viewBox="0 0 2048 768"><path fill="#010713" d="M1420 769H1V1h2048v768zM548.083 310.809c-11.027.063-22.055.126-33.796-.046h-7.11c.134 1.735.233 3.014.127 5.203-.018 33.905-.065 67.81-.045 101.715.015 25.091.118 50.182-.05 76.072.08 1.1.159 2.198.06 4.169-.012 1.925.114 3.864-.066 5.774-.29 3.057 1.236 3.607 4.556 3.241 1.08-.062 2.159-.124 4.164-.032h33.941c0-32.47-.052-64.125.055-95.778.017-4.802.273-9.707 1.266-14.384 5.214-24.548 18.808-41.468 44.15-47.302 10.57-2.434 21.05-1.166 31.688 1.34v-41.996c-32.628-6.088-58.082 4.648-77.249 33.186 0-10.635 0-19.79.187-29.593-.322-.445-.645-.89-1.878-1.569m-147.163-6.977c.055 1.383.11 2.765-.008 5.072.05 5.694.1 11.388-.017 17.955v8.87c-2.493-2.714-3.92-4.501-5.58-6.037-17.245-15.958-37.867-23.547-61.137-24.113-27.809-.677-52.959 6.717-74.867 25.55-6.144 7.211-12.289 14.421-18.999 22.033-8.84 14.143-14.892 29.248-16.133 46.88.547 9.345 1.094 18.69 1.566 28.862 3.732 10.068 7.464 20.137 11.297 30.896 6.005 7.728 12.01 15.456 18.264 23.8 30.945 32.05 101.483 45.282 144.948-1.443v25.277h43.757c0-15.856 0-31.144.18-47.355-.066-6.359-.133-12.718-.014-20-.048-9.688-.096-19.378.043-29.99-.06-9.023-.12-18.045.018-27.989-.07-5.7-.142-11.399-.017-18.018-.06-14.695-.12-29.39.028-45.002V219.043h-43.161c0 10.464 0 20.715-.168 31.813.056 1.718.112 3.437.004 5.973.055 1.385.11 2.77 0 4.824.056.453.111.906.006 2.093.054.745.109 1.49-.006 3.063.056 1.403.112 2.806.003 5.024.055 1.381.11 2.762-.007 5.049.06 3.373.119 6.746.008 11.039.054 5.032.108 10.064-.008 15.911m499.111 193.005c.061 1.724.122 3.448.009 6.032l.208 3.735h42.223V310.98c-11.958 0-23.718 0-36.358-.237h-5.963c0 2.047 0 3.654-.19 6.182.012 34.752.001 69.505.046 104.257.031 24.937.137 49.874.025 75.655m302.581-75.337V311.054h-41.154v24.445c-35.771-41.398-100.465-36.56-136.242-3.303-41.995 39.04-41.757 99.925-9.111 138.409 17.761 20.937 40.886 32.095 68.072 34.78 30.368 3 55.714-7.535 77.27-30.435 0 8.503.482 15.797-.093 23.007-1.659 20.82-10.954 37.303-29.667 47.292-23.547 12.57-48.023 11.634-72.603 3.228-11.9-4.07-22.428-10.686-32.219-19.319l-24.055 31.71c8.414 5.545 15.967 11.316 24.215 15.811 26.471 14.426 55.031 18.529 84.68 15.099 22.834-2.642 43.674-10.56 60.7-26.58 20.752-19.529 29.441-44.37 30.053-72.209.517-23.486.134-46.992.154-71.489m-415.609-27.816c-14.117-1.093-28.217-2.549-42.354-3.188-18.741-.848-37.32.111-54.738 8.37-19.086 9.05-30.773 23.798-32.795 44.936-2.165 22.641 6.474 41.362 25.562 53.453 28.738 18.203 59.113 18.759 89.26 3.227 8.358-4.306 15.46-11.052 23.43-16.893v23.06h41.503c.083-1.078.199-1.88.2-2.683.013-41.154.384-82.313-.1-123.461-.35-29.756-14.642-51.56-41.531-64.079-29.523-13.744-59.962-13.692-90.415-2.771-12.458 4.468-23.836 10.9-33.244 20.735l17.985 30.058c1.427-1.152 2.449-1.98 3.473-2.805 21.24-17.113 45.505-21.459 71.524-15.618 23.024 5.17 33.554 22.449 29.616 48.188-2.144-.145-4.302-.291-7.376-.53m652.188 100.805c-.025-37.147.187-74.297-.145-111.441-.303-33.927-18.488-59.14-50.383-70.549-21.248-7.6-42.991-8.148-65.003-3.884-18.7 3.622-34.76 11.352-44.809 28.497-.818 1.396-1.892 3.69-1.318 4.687 4.328 7.535 9.039 14.849 13.536 22.082 24.77-19.9 51.92-25.51 81.504-15.737 19.028 6.285 28.817 26.576 23.513 46.115-13.222-1.104-26.48-2.403-39.767-3.274-20.354-1.335-40.636-1.513-60.159 5.91-21.39 8.132-35.23 23.008-37.725 46.01-2.408 22.195 6.129 40.542 24.449 53.62 29.283 20.903 74.31 19.167 102.206-3.633 3.902-3.19 7.635-6.586 12.227-10.562v24.34h41.876c0-3.923 0-7.555-.002-12.181m236.032 5.777c39.31 19.383 74.787 13.275 107.238-16.708v23.082h41.119c.136-.784.292-1.26.292-1.736.009-41.162.6-82.335-.18-123.482-.648-34.174-20.268-59.3-52.83-69.845-23.317-7.551-46.869-7.447-70.383-.717-15.722 4.5-29.686 12.236-42.119 23.148l18.811 29.924c20.287-16.267 40.003-22.257 64.618-19.897 28.651 2.747 43.74 21.526 39.855 50.186-11.701-.931-23.438-1.84-35.171-2.805-17.488-1.44-34.981-2.127-52.257 1.717-19.195 4.27-35.388 13.339-44.155 31.798-11.958 25.179-5.056 57.513 25.162 75.335m-105.475-145.153c14.714-7.587 30.107-8.599 46.069-4.316v-41.908c-32.278-6.092-56.821 5.29-75.664 33.02v-30.83h-41.356v195.506h41.356v-5.343c.003-30.328-.336-60.661.122-90.982.346-22.883 8.06-42.394 29.473-55.147m-669.4-89.962 20.911 21.41 36.834-34.814-35.397-37.497-36.39 37.953c4.716 4.336 9.13 8.392 14.042 12.948"/><path fill="#fbfbfb" d="M1202.61 422c-.018 23.997.365 47.503-.152 70.99-.612 27.838-9.3 52.68-30.053 72.207-17.026 16.02-37.866 23.939-60.7 26.58-29.649 3.43-58.209-.672-84.68-15.098-8.248-4.495-15.801-10.266-24.215-15.811l24.055-31.71c9.791 8.633 20.32 15.249 32.22 19.319 24.579 8.406 49.055 9.342 72.602-3.228 18.713-9.99 28.008-26.472 29.667-47.292.575-7.21.092-14.504.092-23.007-21.555 22.9-46.9 33.434-77.27 30.435-27.185-2.685-50.31-13.843-68.071-34.78-32.646-38.484-32.884-99.37 9.111-138.409 35.777-33.257 100.471-38.095 136.242 3.303v-24.445h41.154c0 36.889 0 73.667-.002 110.946m-57.576 26.53c15.839-16.899 21.065-36.788 15.306-59.046-8.333-32.21-39.995-50.993-74.618-44.35-23.128 4.438-38.978 18.267-46.654 40.456-7.656 22.127-3.907 43.044 11.128 60.895 23.69 28.125 67.56 28.967 94.838 2.046M787.462 393.73c2.615.192 4.773.338 6.917.483 3.938-25.739-6.592-43.019-29.616-48.188-26.019-5.84-50.284-1.495-71.524 15.618-1.024.825-2.046 1.653-3.473 2.805l-17.985-30.058c9.408-9.834 20.786-16.267 33.244-20.735 30.453-10.921 60.892-10.973 90.415 2.771 26.89 12.519 41.18 34.323 41.531 64.079.484 41.148.113 82.307.1 123.46-.001.803-.117 1.606-.2 2.684h-41.503v-23.06c-7.97 5.841-15.072 12.587-23.43 16.893-30.147 15.532-60.522 14.976-89.26-3.227-19.088-12.091-27.727-30.812-25.562-53.453 2.022-21.138 13.71-35.886 32.795-44.936 17.417-8.259 35.997-9.218 54.738-8.37 14.137.64 28.237 2.095 42.813 3.234m-7.456 28.81c-3.658-.205-7.32-.634-10.974-.576-14.946.236-29.938.01-44.815 1.186-8.595.68-16.258 5.13-21.083 12.803-8.397 13.355-2.697 29.975 13.047 35.896 21.47 8.076 42.649 5.562 61.69-6.716 17.945-11.57 18.668-22.428 16.458-41.906-4.443-.206-8.915-.414-14.323-.687"/><path fill="#fcfbfc" d="m1439.192 494.984.001 11.685h-41.876v-24.34c-4.592 3.976-8.325 7.373-12.227 10.562-27.895 22.8-72.923 24.536-102.206 3.632-18.32-13.077-26.857-31.424-24.449-53.62 2.495-23.001 16.336-37.877 37.725-46.01 19.523-7.422 39.805-7.244 60.16-5.91 13.285.872 26.544 2.171 39.766 3.275 5.304-19.54-4.485-39.83-23.513-46.115-29.583-9.772-56.734-4.164-81.504 15.737-4.497-7.233-9.208-14.547-13.536-22.082-.574-.998.5-3.291 1.318-4.687 10.05-17.145 26.109-24.875 44.809-28.497 22.012-4.264 43.755-3.716 65.003 3.884 31.895 11.409 50.08 36.622 50.383 70.549.332 37.144.12 74.294.146 111.937m-44.226-47.767c3.122-7.86 1.623-15.93 1.764-24.299-18.307-.583-35.958-1.606-53.603-1.501-8.03.047-16.287 1.506-24.01 3.786-11.09 3.275-17.715 12.705-18.05 23.274-.328 10.388 5.753 19.008 16.763 23.65 11.308 4.77 23.127 4.952 34.888 2.845 17.619-3.156 33.186-9.957 42.248-27.755"/><path fill="#fbfbfb" d="M1674.897 500.097c-29.892-17.654-36.794-49.988-24.836-75.167 8.767-18.46 24.96-27.527 44.155-31.798 17.276-3.844 34.769-3.156 52.257-1.717 11.733.965 23.47 1.874 35.17 2.805 3.887-28.66-11.203-47.44-39.854-50.186-24.615-2.36-44.33 3.63-64.618 19.897l-18.81-29.924c12.432-10.912 26.396-18.647 42.118-23.148 23.514-6.73 47.066-6.834 70.383.717 32.562 10.546 52.182 35.671 52.83 69.845.78 41.147.189 82.32.18 123.482 0 .476-.156.952-.292 1.736h-41.12v-23.082c-32.45 29.983-67.928 36.091-107.563 16.54m12.809-47.362c2.1 12.1 10.399 18.273 21.342 21.109 16.499 4.276 32.77 2.775 48.308-4.262 20.117-9.11 27.777-23.873 24.196-46.824-19.612-.456-39.38-1.35-59.136-1.134-6.61.072-13.473 2.26-19.72 4.74-10.694 4.244-16.072 14.11-14.99 26.37"/><path fill="#fdfcfd" d="M1569.432 355.304c-21.097 12.561-28.811 32.072-29.157 54.955-.458 30.32-.119 60.654-.122 90.982v5.343h-41.356V311.078h41.356v30.83c18.843-27.73 43.386-39.112 75.664-33.02v41.908c-15.962-4.283-31.355-3.271-46.385 4.508M549.774 313.027v28.944c19.167-28.538 44.621-39.274 77.25-33.186v41.997c-10.638-2.507-21.119-3.775-31.69-1.341-25.341 5.834-38.935 22.754-44.149 47.303-.993 4.676-1.25 9.581-1.266 14.383-.107 31.653-.055 63.308-.055 95.778-11.447 0-22.694 0-34.516-.307-.845-.734-1.115-1.163-1.218-1.682.228-.2.37-.366.34-.405-.142-.191-.33-.348-.51-.759-.009-.242-.024-.725.257-.93.45-1.894.822-3.593.732-5.267-.105-1.959-.904-3.896-.906-5.843q-.08-78.074-.01-156.147c.003-3.611.533-7.218.701-10.832.167-3.574.185-7.154.69-10.743 4.524-.32 8.688-1.217 12.717-.805 6.988.713 13.893 2.062 21.027-.17.202.01.606.012.606.012"/><path fill="#fbfbfb" d="M906.993 310.98h35.478v195.624h-42.223c-.068-1.217-.138-2.476.22-4.076 1.648.536 2.867 1.413 4.086 2.29.482-1.446 1.405-2.902 1.374-4.337-.19-8.827-.826-17.647-.882-26.473-.138-22.036-.046-44.074-.045-66.111 0-26.608.007-53.215-.014-79.822-.002-1.81-.211-3.618-.324-5.428l-1.664.065v4.646c0 30.243.055 60.486-.028 90.73-.032 11.47-.552 22.939-.544 34.408.008 12.752.474 25.504.443 38.255-.005 1.75-1.728 3.494-2.655 5.241-.072-24.936-.178-49.873-.21-74.81-.044-34.752-.033-69.505.408-104.71 5.293 1.268 6.42-1.525 6.58-5.492"/><path fill="#f44914" d="M444.011 461.002v46.432h-43.757v-25.277c-43.465 46.725-114.003 33.493-144.819.903 1.808-2.156 3.392-5.019 5.182-5.154 5.288-.399 11.334-1.19 15.837.881 6.817 3.135 12.48 2.653 18.797-.31 2.783-1.304 6.002-1.676 9.022-2.473 4.907-1.296 9.813-2.593 15.145-3.917 10.479-.043 20.532-.057 30.695.08.35-.02.588-.19 1.029-.563.757-.27 1.312-.34 1.88-.036.26.965.34 1.788.783 2.114 4.137 3.033 15.012 3.201 19.403.165 2.987-2.065 5.737-3.413 9.663-2.204 3.407 1.049 7.224 1.516 10.774 1.216 9.297-.786 18.36-4.677 27.92-1.927.429.123.991-.074 1.451-.235 2.824-.986 5.592-2.162 8.464-2.971 3.13-.882 6.458-.944 7.877-4.931.363-1.02 3.04-1.218 4.654-1.793"/><path fill="#fc8e11" d="M259.952 330.92c21.267-18.624 46.417-26.018 74.226-25.341 23.27.566 43.892 8.155 61.138 24.113 1.66 1.536 3.086 3.323 5.579 6.038 0-3.586 0-6.229.36-9.617.605-6.088.851-11.432 1.115-17.161 13.704 4.276 26.961 6.414 40.627 5.477.006 2.14.008 3.85.007 6.032-.006 8.827-.007 17.185-.403 25.533-6.252-1.305-12.11-2.6-18.41-3.993l7.813-5.426-.67-1.636c-5.071.84-10.314 1.122-15.179 2.629-12.526 3.879-24.938 8.155-37.26 12.642-2.137.779-3.614 3.37-5.707 5.002-7.294-3.143-14.063-6.88-21.302-9.037-14.3-4.26-28.614-2.497-42.9 1.938-.526.133-.763.314-1.183.715-.434.138-.622.138-.82-.23-.12-.851-.068-1.585-.366-1.777a3917 3917 0 0 0-24.548-15.647c-.918-.581-1.91-1.045-3.218-1.751l4.06-5.136h-12.357c-1.298 7.47-5.624 9.984-10.602 6.633"/><path fill="#fb800e" d="M900.098 264.9c-4.663-4.306-9.076-8.362-13.793-12.698l36.391-37.953 35.397 37.497-36.834 34.814c-6.36-6.513-13.636-13.961-21.16-21.66"/><path fill="#fc820e" d="M373.5 355.333c1.781-1.754 3.258-4.344 5.395-5.123 12.322-4.487 24.734-8.763 37.26-12.642 4.865-1.507 10.108-1.789 15.178-2.629l.67 1.636-7.812 5.426c6.3 1.393 12.158 2.688 18.412 4.46.737 6.5 1.08 12.52 1.422 18.54.07 5.7.142 11.4-.165 17.3-.741-1.191-1.103-2.584-1.302-3.348-2.48-.993-4.843-1.281-6.207-2.602-4.875-4.72-7.518-4.338-11.76.605-1.472 1.716-5.922 2.697-7.976 1.755-6.245-2.866-15.858-1.819-21.123 3.174a460 460 0 0 1-10.562-17.106c-.517-.606-1.002-.878-1.479-1.195.009-.046-.066-.1.012-.397-.264-.38-.606-.465-.97-.593-.021-.044-.119-.042-.043-.367-.471-.602-1.018-.879-1.527-1.169.037-.013.039.067-.094-.185-.46-.43-.787-.609-1.314-.814-.475-.155-.617-.37-.722-.968-.439-.5-.783-.704-1.034-.905.093.004.028.179-.025-.172-1.004-.864-1.955-1.377-2.858-1.905.048-.016.048.086-.07-.178-.465-.399-.811-.534-1.189-.637-.03.032-.117.039-.117.039"/><path fill="#fb5311" d="M444.101 460.54c-1.704 1.037-4.381 1.234-4.744 2.255-1.419 3.987-4.747 4.05-7.877 4.931-2.872.81-5.64 1.985-8.464 2.971-.46.161-1.022.358-1.45.235-9.561-2.75-18.624 1.141-27.921 1.927-3.55.3-7.367-.167-10.774-1.216-3.926-1.209-6.676.14-9.663 2.204-4.39 3.036-15.266 2.868-19.403-.165-.444-.326-.523-1.149-.438-2.26a52 52 0 0 1 9.738-3.32c3.65 3.917 5.136 3.84 8.86-.59-1.09-.887-2.176-1.77-3.05-2.93 12.829-7.838 21.546-18.83 28.185-31.546 1.64 1.271 3.948 1.992 4.305 3.262 1.047 3.72 3.579 4.167 6.5 3.653 7.738-1.359 15.404-3.155 23.164-4.341 2.111-.323 4.589.596 6.662 1.492 2.231.965 4.185 2.573 6.26 3.9.067 6.36.134 12.718.11 19.538"/><path fill="#fc820e" d="M259.632 331.025c5.298 3.246 9.624.732 10.922-6.738h12.357l-4.06 5.136c1.307.706 2.3 1.17 3.218 1.75a3917 3917 0 0 1 24.548 15.648c.298.192.246.926.11 2.036-3.321 2.373-6.511 3.944-9.45 5.892-9.684 6.418-16.789 15.172-22.675 25.075-5.902-4.91-.05-7.012 2.256-10.07-2.577-3.926-6.747-3.95-10.525-4.73-3.855-.796-8.169-.635-11.506-2.379-5.005-2.614-9.333-6.525-13.949-9.884 6.144-7.21 12.289-14.421 18.754-21.736"/><path fill="#fda218" d="M401.088 256.012c-.056-1.719-.112-3.438.35-5.582 7.803-.76 15.108-1.55 22.366-1.24 3.719.159 7.492 1.99 10.98 3.62 2.632 1.231 4.852 3.344 8.21 5.749 0 10.162 0 21.803-.395 33.452-1.843.312-3.302.92-4.738.869-7.292-.265-14.605-.45-21.852-1.217-2.441-.259-5.61-1.54-6.871-3.413-2.58-3.832-4.93-3.604-8.04-1.25-.06-3.372-.119-6.745.15-10.814.168-2.186.006-3.677-.155-5.168-.057-1.403-.113-2.806.14-4.816.16-1.468.009-2.328-.142-3.19-.056-.453-.111-.906.16-1.938.163-2.073 0-3.568-.163-5.062"/><path fill="#fb750c" d="M240.595 352.961c4.899 3.16 9.227 7.07 14.232 9.684 3.337 1.744 7.651 1.583 11.506 2.379 3.778.78 7.948.804 10.525 4.73-2.307 3.058-8.158 5.16-2.292 10.43a317 317 0 0 1-6.856 25.81c-3.403-2.313-6.44-4.618-10.653-7.816l5.388-2.546-.56-1.777c-2.223-.618-4.5-1.908-6.658-1.732-7.34.599-14.66 1.567-21.943 2.678-6.651 1.014-6.627 1.176-8.88 4.453 1.016-16.844 7.068-31.949 16.191-46.293"/><path fill="#fc700c" d="M395.778 382.075c4.979-5.183 14.592-6.23 20.837-3.364 2.054.942 6.504-.039 7.976-1.755 4.242-4.943 6.885-5.325 11.76-.605 1.364 1.32 3.728 1.61 6.207 2.602.199.764.561 2.157 1.203 3.81.34 9.281.4 18.303-.02 27.777-6.297-1.939-12.002-4.608-18.537-1.6-2.179 1.003-4.814.973-7.198 1.581-5.645 1.44-11.265 2.98-16.954 4.016.463-11.498-.686-22.26-5.274-32.462"/><path fill="#fcad1f" d="M442.994 292.004v-33.445c-3.358-2.405-5.578-4.518-8.21-5.748-3.488-1.631-7.261-3.462-10.98-3.621-7.258-.31-14.563.48-22.282.817-.434-10.249-.434-20.5-.434-30.964h43.161c0 33.381 0 66.71-.362 100.495-.535.457-.707.455-.88.453-.002-1.711-.004-3.423-.005-6.03z"/><path fill="#fb5311" d="m318.992 472.115-14.719 3.889c-3.02.797-6.24 1.169-9.022 2.473-6.318 2.963-11.98 3.445-18.797.31-4.503-2.07-10.549-1.28-15.837-.88-1.79.134-3.374 2.997-5.306 4.844-6.258-7.495-12.264-15.223-18.085-23.58 7.07-6.21 16.284-2.487 24.307-5.867l-3.305-4.462c6.61-2.968 11.996-3.346 18.454-1.636 1 .265 2.176-.142 3.266-.16-.004.078-.037.229-.3.655-2.158 5.7 1.522 8.588 4.926 11.013 1.34.954 4.098-.085 6.494-.096 1.187 1.16 2.09 2.2 2.945 3.593-3.764 4.368-7.479 8.382-11.522 12.751 3.7 0 7.154.256 10.553-.06 5.05-.47 8.287-3.739 9.604-8.63a469 469 0 0 1 13.589 5.225c.532.238.87.3 1.476.324.604.073.942.184 1.28.294"/><path fill="#fc690d" d="M224.292 399.648c2.365-3.671 2.34-3.833 8.992-4.847 7.284-1.11 14.604-2.08 21.943-2.678 2.158-.176 4.435 1.114 6.657 1.732l.56 1.777-5.387 2.546c4.213 3.198 7.25 5.503 10.742 8.244.792 10.71 1.389 20.932 6.14 30.565-1.362-1.004-2.689-2.164-3.699-3.554-3.889-5.354-6.62-12.16-15.415-10.469-9.64 1.855-19.335 3.422-29.005 5.114-.547-9.345-1.094-18.69-1.528-28.43"/><path fill="#fbfbfb" d="M515.002 314.002c-.083 3.577-.101 7.157-.268 10.73-.168 3.615-.698 7.222-.701 10.833q-.07 78.074.01 156.147c.002 1.947.8 3.884.906 5.843.09 1.674-.283 3.373-1.09 5.277-1.389 1.444-2.14 2.67-2.89 3.897-2.53.574-4.056.024-3.766-3.033.18-1.91.054-3.849.502-6.196 1.54-.271 2.646-.12 3.934.054v-5.105l-4.198.505c-.064-25.091-.167-50.182-.182-75.273-.02-33.905.027-67.81.53-102.177 2.715-.82 4.946-1.179 7.186-1.528zm-4.818 79.489 1.216.86.325-1.273c-.474-.05-.948-.102-1.541.413"/><path fill="#fc5e0f" d="M225.782 428.491c9.708-2.105 19.403-3.672 29.043-5.527 8.795-1.691 11.526 5.115 15.415 10.47 1.01 1.39 2.337 2.549 3.967 3.787 2.213 3.231 3.98 6.49 5.745 9.747-1.094.096-2.27.503-3.27.238-6.458-1.71-11.843-1.332-18.454 1.636l3.305 4.462c-8.023 3.38-17.236-.342-24.357 5.522-3.967-9.785-7.699-19.854-11.394-30.335M401.112 415.001c5.63-1.5 11.249-3.04 16.894-4.48 2.384-.608 5.02-.578 7.198-1.581 6.535-3.008 12.24-.339 18.443 2.062.434 9.7.482 19.389.437 29.54-2.168-.867-4.122-2.475-6.353-3.44-2.073-.896-4.55-1.815-6.662-1.492-7.76 1.186-15.426 2.982-23.163 4.341-2.922.514-5.454.066-6.5-3.653-.358-1.27-2.665-1.99-4.299-3.64 1.19-6.337 2.597-11.997 4.005-17.657"/><path fill="#fd9712" d="M442.599 292.011c.398 7.013.401 14.033.4 21.522-13.668 1.833-26.925-.305-40.629-4.581-.264 5.73-.51 11.073-1.031 16.725-.326-5.385-.377-11.079-.096-17.478.17-2.197.008-3.69-.153-5.182-.054-5.032-.108-10.064-.077-15.556 3.195-2.815 5.545-3.043 8.125.789 1.262 1.873 4.43 3.154 6.871 3.413 7.247.766 14.56.952 21.852 1.217 1.436.052 2.895-.557 4.738-.869"/><path fill="#f4f4f5" d="M900.123 496.415c1.02-2.17 2.742-3.915 2.747-5.664.03-12.75-.435-25.503-.443-38.255-.008-11.47.512-22.939.544-34.409.083-30.243.028-60.486.028-90.73v-4.645l1.664-.065c.113 1.81.322 3.619.324 5.428.02 26.607.014 53.214.014 79.822 0 22.037-.093 44.075.045 66.111.056 8.826.692 17.646.882 26.473.03 1.435-.892 2.89-1.374 4.337-1.22-.877-2.438-1.754-4-2.72-.401-1.813-.462-3.537-.43-5.683"/><path fill="#fbfbfb" d="M548.966 313.007c-6.932 2.24-13.837.891-20.825.178-4.03-.412-8.193.485-12.717.805-.422.012-.44-.005-.447-.385.003-1.122.013-1.865.024-2.607 11.027-.063 22.055-.126 33.536.256.446.88.438 1.317.43 1.753"/><path fill="#fd9712" d="M443.004 320.46c.176-.467.348-.465.779-.463.319 14.696.378 29.39.34 44.545-.44-5.561-.783-11.582-1.127-18.07 0-8.826.002-17.184.008-26.011"/><path fill="#e4e4e5" d="M514.644 310.88c.346.86.336 1.603.324 2.717-2.233.728-4.464 1.086-7.076 1.452-.482-1.272-.581-2.551-.716-4.286 2.573 0 4.842 0 7.468.117"/><path fill="#f4f4f5" d="M906.553 310.862c.28 4.085-.847 6.878-6.044 5.15-.359-1.615-.359-3.222-.359-5.269 2.103 0 4.033 0 6.403.119"/><path fill="#e4e4e5" d="M507.325 493.354c1.403-.555 2.69-.71 4.314-.905v5.105a158 158 0 0 0-3.845-.49c-.426-1.113-.506-2.212-.469-3.71M511.364 506.833c.356-1.33 1.106-2.557 2.214-3.795.358-.01.373.472.38.967.006.664.006.833.006 1.002.27.428.539.857.92 1.514-.966.292-2.046.354-3.52.312"/><path fill="#fcad1f" d="M401.006 256.42c.245 1.086.408 2.581.327 4.32-.3-1.142-.354-2.526-.327-4.32M401.01 271.425c.244 1.084.406 2.575.325 4.309-.298-1.139-.353-2.52-.325-4.309"/><path fill="#fda218" d="M401.005 303.425c.246 1.084.407 2.577.324 4.312-.3-1.14-.354-2.522-.324-4.312"/><path fill="#fcad1f" d="M401.01 263.38c.232.494.383 1.354.309 2.408-.28-.552-.335-1.297-.309-2.408"/><path fill="#e4e4e5" d="M549.168 313.016c-.193-.445-.185-.882-.175-1.645.323.118.646.562.875 1.331-.094.325-.498.323-.7.314"/><path fill="#030813" d="M1144.785 448.78c-27.03 26.672-70.9 25.83-94.59-2.295-15.034-17.85-18.783-38.768-11.127-60.895 7.676-22.189 23.526-36.018 46.654-40.456 34.623-6.643 66.285 12.14 74.618 44.35 5.759 22.258.533 42.147-15.555 59.297"/><path fill="#040914" d="M780.474 422.573c4.94.24 9.412.448 13.855.654 2.21 19.478 1.487 30.336-16.458 41.906-19.041 12.278-40.22 14.792-61.69 6.716-15.744-5.921-21.444-22.54-13.047-35.896 4.825-7.674 12.488-12.123 21.083-12.803 14.877-1.177 29.869-.95 44.815-1.186 3.654-.058 7.316.371 11.442.609M1394.842 447.587c-8.938 17.428-24.505 24.229-42.124 27.385-11.76 2.107-23.58 1.925-34.888-2.844-11.01-4.643-17.091-13.263-16.762-23.65.334-10.57 6.958-20 18.05-23.275 7.722-2.28 15.98-3.739 24.009-3.786 17.645-.105 35.296.918 53.603 1.501-.14 8.368 1.358 16.44-1.888 24.669M1687.626 452.328c-1.002-11.854 4.376-21.72 15.07-25.964 6.247-2.48 13.11-4.668 19.72-4.74 19.756-.215 39.524.678 59.136 1.134 3.58 22.95-4.08 37.715-24.196 46.824-15.538 7.037-31.81 8.538-48.308 4.262-10.943-2.836-19.243-9.008-21.422-21.516"/><path fill="#fbfbfb" d="M514.13 504.916c-.166-.078-.166-.247-.164-.669.174-.084.362.073.504.264.03.04-.112.206-.34.405"/><path fill="#020813" d="M401.052 414.537c-1.348 6.124-2.755 11.784-4.17 17.822-6.421 13.393-15.138 24.385-28.296 32.28-2.287 1.306-4.034 2.28-5.78 3.255-3.035 1.003-6.07 2.005-9.451 3.154-.901.216-1.456.286-2.462.545-.45.188-.89.422-.89.422-10.053.015-20.106.03-30.585.072-.763-.082-1.101-.193-1.89-.463a11 11 0 0 0-1.484-.303c-4.339-1.654-8.678-3.308-13.613-5.265-3.188-1.602-5.779-2.9-8.37-4.198-.903-1.04-1.806-2.08-3.186-3.514-3.973-3.953-7.469-7.511-10.964-11.069 0 0 .033-.15.037-.229-1.762-3.336-3.528-6.594-5.56-10.086-5.2-9.606-5.797-19.829-6.222-30.53 2.162-8.857 4.414-17.285 6.701-26.073 5.621-10.436 12.726-19.19 22.41-25.608 2.939-1.948 6.129-3.519 9.46-5.522.444-.26.632-.261 1.303-.395.809-.233 1.037-.44 1.17-.753 14.062-4.4 28.375-6.164 42.676-1.904 7.24 2.157 14.008 5.894 21.302 9.037.312.12.399.114.55.34a4.7 4.7 0 0 0 1.186.643s0-.102.102.194c.988.856 1.874 1.416 2.76 1.976 0 0 .066-.175.08.104.35.492.686.705 1.022.917.01.303.152.518.757.926.66.459.988.636 1.317.813 0 0-.002-.08.062.187.493.591.922.916 1.35 1.24 0 0 .098-.002.21.23.282.477.512.633.801.702 0 0 .075.054.198.336.541.62.96.956 1.378 1.292 3.415 5.528 6.83 11.056 10.53 16.773 4.875 10.392 6.024 21.154 5.561 32.652"/><path fill="#fb5311" d="M350.113 472.167c-.11-.152.33-.386.579-.374.01.184-.23.355-.579.374"/><path fill="#fc820e" d="M308.985 348.113c.092.279-.136.486-.698.582-.064-.268.173-.45.698-.582"/><path fill="#fc8e11" d="M377.734 358.014c-.834-.21-1.72-.77-2.757-1.61.802.233 1.753.746 2.757 1.61M384.93 364.779c-.388-.003-.806-.34-1.356-.913.354.035.84.307 1.356.913M382.45 362.227c-.504 0-.933-.324-1.463-.902.445.023.992.3 1.463.902M383.463 363.187c-.367.228-.597.072-.858-.36.252-.105.594-.02.858.36M380.829 360.873q-.294.113-.983-.533.294-.113.983.533M378.793 359.091c-.24.083-.577-.13-1.02-.626.237-.078.581.127 1.02.626M374.806 355.931c-.227.125-.572-.015-1.038-.411q.34-.186 1.038.411"/><path fill="#f44914" d="M363.105 468.103c1.447-1.184 3.194-2.158 5.269-3.19 1.415.828 2.501 1.712 3.591 2.6-3.724 4.428-5.21 4.506-8.86.59M294.013 462.21c2.64.946 5.23 2.244 8.038 3.76-.72 5.193-3.958 8.463-9.007 8.932-3.4.316-6.852.06-10.553.06 4.043-4.369 7.758-8.383 11.522-12.751"/><path fill="#fc5e0f" d="M279.647 447.701c3.76 3.132 7.255 6.69 10.944 10.522-1.919.406-4.678 1.445-6.017.491-3.404-2.425-7.084-5.314-4.927-11.013"/><path fill="#f44914" d="M316.237 471.497c.152-.128.496-.08 1.026.165-.155.135-.494.073-1.026-.165"/><path fill="#e4e4e5" d="M510.244 393.208c.533-.232 1.007-.18 1.481-.13l-.325 1.273c-.405-.286-.81-.573-1.156-1.143"/></svg>